<svg width="500px"viewBox="0 0 500 500">
    <path d="M250,107.554c38.049,0,73.82,14.817,100.725,41.722c26.904,26.904,41.722,62.676,41.722,100.725
        s-14.817,73.82-41.722,100.725S288.049,392.446,250,392.446s-73.82-14.817-100.725-41.722
        C122.371,323.82,107.554,288.049,107.554,250s14.817-73.82,41.722-100.725C176.18,122.371,211.951,107.554,250,107.554 M250,47.554
        C138.192,47.554,47.554,138.192,47.554,250c0,111.808,90.638,202.446,202.446,202.446c111.808,0,202.446-90.639,202.446-202.446
        C452.446,138.192,361.808,47.554,250,47.554L250,47.554z"/>
</svg>