<svg version="1.1" id="Layer_1" xmlns="http://www.w3.org/2000/svg" xmlns:xlink="http://www.w3.org/1999/xlink" x="0px" y="0px"
	 width="600px" height="300px" viewBox="0 0 600 300" enable-background="new 0 0 600 300" xml:space="preserve">
<path fill="#3a4653" d="M242.281,271.063c-2.436-3.06-4.414-6.504-5.797-10.448c0.018-0.088,0.032-0.177,0.051-0.264
	c1.441-0.688,3.201-1.398,5.036-2.106C241.522,262.459,241.756,266.731,242.281,271.063z M244.296,257.207
	c-0.407,0.154-0.816,0.309-1.225,0.464c1.217,3.261,2.903,6.129,4.945,8.696c-0.422-3.485-0.643-6.931-0.649-10.332
	C246.355,256.429,245.321,256.82,244.296,257.207z M248.117,72.508c-0.621,0.201-1.207,0.495-1.763,0.837
	c-0.747,0.458-1.373,1.264-1.937,1.914c-0.696,0.803-1.289,1.577-2.068,2.296c-0.757,0.697-1.976,1.647-2.071,2.763
	c1.138,0.343,2.539,0.605,3.507-0.165c0.515-0.409,1.384-1.113,1.776-1.641c0.545-0.737,0.747-1.634,1.104-2.463
	c0.678-1.578,1.538-2.938,3.041-3.832c-0.153,0.092-0.557,0.051-0.741,0.082C248.676,72.349,248.393,72.418,248.117,72.508z
	 M462.297,86.243c-3.134,0.144-6.268,0.285-9.402,0.419c-5.221,0.224-10.438,0.438-15.661,0.585
	c-3.961,0.111-7.952,0.24-11.927,0.138c-0.874,1.373-1.953,2.558-3.259,3.521c-2.8,2.064-6.27,3.025-10.919,3.025
	c-4.013,0-8.467-0.72-13.186-1.484c-4.87-0.788-9.894-1.592-14.545-1.673c-5.074,25.251-16.784,31.559-25.485,32.505
	c-0.606,14.633,5.815,21.582,15.294,28.141c5.5,1.536,12.95,5.651,12.95,5.651c-26.927-28.913,11.035-12.581,11.035-12.581
	c-33.989-26.264,9.491-14.126,9.491-14.126c-38.183-19.202,20.525-10.042,20.525-10.042c-39.196-10.333-26.115-14.479,20.305-14.678
	c-14.797-2.281-28.371-5.3-39.284-9.932c23.313-0.864,44.294-4.613,64.005-9.933C469.284,86.577,465.361,86.103,462.297,86.243z
	 M386.361,74.152c-0.508,1.154-1.082,2.215-1.697,3.179c0.134,0.574,0.527,0.87,0.527,0.87c-0.051,0.536-0.105,1.057-0.159,1.582
	c5.19,0.174,10.203,0.981,14.683,1.707c4.257,0.688,8.277,1.339,11.426,1.339c1.562,0,2.604-0.167,3.309-0.385
	c0.35-0.217,0.755-0.434,1.185-0.652c0.503-0.495,0.859-1.382,1.044-2.689c0.594-4.215,0.208-8.176-0.927-10.584
	c-4.163,0.988-8.262,1.762-12.289,2.29c1.588-1.815,3.346-3.635,4.282-5.591C394.711,68.962,388.866,71.975,386.361,74.152z
	 M585.238,29.059l-10.595,4.635l17.878-27.148c-11.08,8.578-21.021,14.285-30.127,17.878l2.209-5.373
	c-13.703,11.13-19.45,10.598-32.669,18.618c1.571-3.379,3.018-6.72,3.31-9.93c-29.877,19.878-62.434,33.56-98.66,38.739
	c3.738-2.374,7.335-5.163,9.596-8.268c-6.697,2.848-13.268,5.317-19.697,7.338c1.243,3.422,1.771,7.496,1.501,11.934
	c7.676-2.128,15.6-3.768,16.918-4.03c21.266-4.226,42.364-9.583,62.923-16.488c9.855-3.31,19.576-7.05,29.131-11.15
	c4.928-2.114,9.815-4.315,14.658-6.614c2.503-1.188,4.995-2.399,7.474-3.634c1.367-0.681,6.537-2.325,7.171-3.638
	c-9.582,19.907-29.243,35.985-58.71,48.335c16.234-0.777,36.227-4.548,50.873-10.153c-11.863,18.904-37.316,29.58-61.908,35.977
	c13.738,0.355,28.632-0.636,45.908-4.414c-15.328,14.402-38.146,24.742-65.11,24.719c17.162,5.045,31.881,5.92,44.475,5.959
	c-13.13,12.745-35.557,14.563-60.807,12.802c15.324,7.412,30.518,9.421,45.686,10.373c-16.785,6.647-38.373,9.186-63.344,8.829
	c12.377,6.568,25.83,11.451,40.832,13.906c-19.259,2.04-39.451,1.581-60.476-1.104c1.282,3.854,10.533,9.759,25.824,17.216
	c-12.714-0.591-25.411-2.64-38.099-5.789c1.331,3.723,2.097,7.825,2.427,12.934c0.046,0.046,0.089,0.094,0.136,0.14
	c-0.043-0.01-0.086-0.021-0.129-0.03c0.129,2.04,0.197,4.223,0.197,6.628c0,1.264-0.058,2.503-0.141,3.729
	c7.406,0.912,15.179,1.767,23.524,2.472c-4.55-2.858-7.783-6.157-9.602-9.932c7.46,0.587,14.867,1.26,22.182,2.151
	c-1.891-1.04-2.9-2.272-3.311-3.639c11.996,1.022,24.091,0.749,36.251-0.334c-8.376-2.673-16.169-5.999-21.519-12.067
	c19.063,0.703,36.074-2.108,50.156-9.948c-7.667-2.289-14.669-5.118-19.698-9.538c11.265-3.04,23.081-6.796,35.756-12.188
	c-2.609-0.215-4.906-0.742-6.29-2.193c11.194-4.063,21.023-10.259,29.464-18.623c-10.554,3.128-20.671,5.758-28.803,6.125
	c14.687-9.947,22.398-15.353,26.816-21.354c-7.992,1.443-15.183,1.371-21.686,0c18.008-9.983,33.071-20.167,45.191-36.583
	l-25.161,6.29c5.647-2.881,11.125-5.797,15.56-8.939c-2.499,0.151-4.678-0.082-6.289-0.993c4.272-1.78,8.018-3.824,10.924-6.291
	c-2.498,0.106-4.432-0.084-5.627-0.662l20.856-20.526c-12.392,3.916-23.188,6.549-32.444,7.945
	C564.604,52.547,575.549,40.975,585.238,29.059z M379.188,157.972c-15.154-9.608-27.124-17.2-22.553-43.108
	c0.563-3.187,1.275-5.989,2.109-8.482l-1.353,0.126l1.773-3.571c0.104-0.21,0.224-0.418,0.344-0.625
	c0.091-0.156,0.228-0.391,0.249-0.456c0.084-0.396,0.191-0.806,0.304-1.219c0.156-0.58,0.418-1.551,0.328-1.842
	c-0.183-0.585-0.201-0.647-1.048-0.647c-0.303,0-0.613,0.019-0.924,0.037c-0.398,0.023-0.799,0.045-1.19,0.045
	c-0.572,0-1.334-0.044-2.125-0.301c-2.158,4.167-3.889,9.335-5.025,15.777c-5.348,30.3,10.357,40.257,25.542,49.891
	c15.066,9.556,29.533,13.887,29.533,44.657c0,25.32-18.909,36.852-39.252,39.752c-2.38-3.232-7.605-4.091-10.072-4.016
	c-26.533-18.297-26.854-33.067-19.536-38.858c0.859-0.68,1.718-1.071,2.568-1.255c2.064-0.443,4.077,0.421,5.898,1.88
	c0.001,0.001,0.003,0.002,0.005,0.005c0.162,0.131,0.323,0.267,0.484,0.406c0.006,0.005,0.011,0.01,0.017,0.015
	c0.645,0.566,1.264,1.2,1.848,1.872c0,0,0.001,0,0.002,0c3.258,3.738,5.471,8.553,5.471,8.553l3.388-3.64
	c1.432,2.465,2.516,5.066,4.133,7.388c0.538,0.773,1.137,1.516,1.826,2.212l1.655-6.291c4.892,4.728,10.25,8.143,16.058,10.594
	c-2.493-3.75-4.391-7.895-5.794-12.415c0.705,0.369,1.382,0.718,2.037,1.052c0.237,0.122,0.462,0.233,0.692,0.349
	c0.415,0.21,0.825,0.417,1.221,0.613c0.247,0.123,0.485,0.239,0.727,0.357c0.36,0.177,0.717,0.35,1.063,0.517
	c0.231,0.111,0.459,0.222,0.684,0.328c0.349,0.166,0.688,0.325,1.022,0.481c0.19,0.088,0.383,0.18,0.568,0.265
	c0.395,0.183,0.776,0.355,1.149,0.523c0.104,0.048,0.214,0.097,0.316,0.144c4.438,1.985,7.368,2.998,9.888,3.979
	c-1.943-2.37-2.828-4.927-2.98-7.614c3.542,1.349,7.294,2.487,11.37,3.266c0.851-3.172,1.324-6.645,1.324-10.461
	c0-3.726-0.212-7.037-0.611-10.001c-5.407-2.104-10.379-4.788-15.063-7.854c0.998,6.86,4.12,12.981,9.49,18.318
	c-9.573-1.446-17.302-6.59-23.837-14.125c0.393,5.184,1.964,9.629,4.856,13.242c-3.041-1.019-5.749-2.341-8.182-3.917
	c-0.01-0.01-0.021-0.021-0.03-0.03c-0.317-0.207-0.622-0.425-0.931-0.64c-0.291-0.203-0.582-0.409-0.865-0.619
	c-0.494-0.368-0.977-0.748-1.446-1.137c-0.336-0.28-0.673-0.559-0.996-0.849c-0.359-0.321-0.709-0.653-1.056-0.987
	c-0.195-0.19-0.387-0.384-0.579-0.579c-0.569-0.575-1.12-1.168-1.65-1.779c-0.162-0.185-0.324-0.369-0.482-0.559
	c-1.014-1.208-1.96-2.479-2.849-3.804c-0.122-0.185-0.243-0.371-0.364-0.557c-0.492-0.759-0.967-1.532-1.425-2.323
	c-0.092-0.159-0.187-0.318-0.277-0.479c-0.823-1.456-1.592-2.964-2.313-4.513c-0.063-0.135-0.125-0.269-0.186-0.402
	c-0.475-1.035-0.933-2.085-1.371-3.154h-0.001c-1.273-3.106-2.412-6.34-3.47-9.646c1.766-6.619,9.271-0.001,9.271-0.001
	c-5.298-15.23,10.594-3.091,10.594-3.091c-5.374-7.565-3.88-8.428-1.02-7.383c-12.558-8.524-24.155-19.789-20.728-44.991
	c-0.908-1.767-1.695-3.683-2.001-5.552c0.273-0.247,0.829,0.086,1.487,0.399c-0.309-3.135-0.348-6.385,0.688-9.984
	c0.014-0.165,0.287-0.472,0.353-0.451c1.841,0.605,1.552,0.485,2.318-1.278c0.749-1.722,2.136-3.179,3.351-4.664
	c0.103-0.125,1.068,0.35,1.558,0.664c2.273,1.465,6.14-1.267,7.344,2.608c0.377,1.218-0.289,2.787-0.579,4.173
	c-0.118,0.568-0.51,1.078-0.776,1.615c0.651-0.062,1.312-0.085,1.958-0.191c4.488-0.74,8.247-3.027,10.424-6.851
	c1.958-3.442,1.179-7.142-1.689-10.178c-1.17-1.239-2.284-2.547-3.277-3.927c-0.239-0.33,0.021-1.098,0.186-1.623
	c0.711-2.269-0.203-3.62-1.437-4.787l-12.063-12.097c-1.343-1.536-2.657-3.09-3.786-4.77c-1.709-2.548-2.813-5.505-4.198-8.274
	c-0.047-0.094-0.324-0.193-0.354-0.162c-0.507,0.561-1.198,1.071-1.422,1.736c-0.214,0.642,0.066,1.447,0.116,2.181
	c0.058,0.848,0.101,1.696,0.15,2.544c-1.31-0.69-2.705-1.257-3.901-2.104c-1.279-0.908-2.369-2.079-3.542-3.135l-0.008,0.016v0
	c0,0,0.008-0.015,0.008-0.015l-0.026-0.005c-0.168-0.182-0.338-0.364-0.507-0.548c0.002,0.001,0.006,0.002,0.008,0.002l-0.029-0.025
	l-0.001,0.001c-0.002-0.003-0.004-0.006-0.008-0.01l0.025-0.002c-0.646-0.681-1.292-1.36-1.938-2.04
	c-0.106,1.266-0.255,2.531-0.294,3.799c-0.018,0.512,0.214,1.031,0.332,1.547c-0.507-0.25-1.098-0.404-1.501-0.768
	c-2.009-1.816-3.961-3.691-5.949-5.53c-0.144-0.132-0.408-0.135-0.617-0.199c-0.201,0.767-0.658,1.568-0.563,2.294
	c0.345,2.583,0.888,5.14,1.299,7.716c0.019,0.106-0.547,0.473-0.783,0.427c-2.044-0.398-4.07-0.882-6.114-1.289
	c-0.284-0.057-0.901,0.202-0.896,0.246c0.077,0.539,0.239,1.067,0.392,1.594c0.652,2.267,2.377,4.931,1.718,6.708
	c-1.03,2.763-3.725,4.888-5.598,7.372c-0.291,0.386,0.242,1.31,0.045,1.86c-0.464,1.291-1.15,2.501-1.704,3.762
	c-0.033,0.074,0.329,0.462,0.435,0.433c0.401-0.112,0.771-0.334,1.154-0.516c-0.3,0.615-0.519,1.289-0.914,1.833
	c-1.572,2.159-3.288,4.22-4.736,6.458c-0.325,0.503,0.511,1.656,0.303,2.358c-0.494,1.653-0.461,2.764-1.196,4.325
	c0.36,0.075,0.113,0.709,0.473,0.791c-3.862,8.168-8.323,16.703-8.323,16.703c-1.229,2.623-4.173,3.098-5.601,0.002l0.007-0.002
	c0,0-11.925-22.803-13.656-29.535c-1.731-6.731-2.981-14.911-6.251-16.257c0.847-0.99,1.994-1.098,3.379-1.256
	c-3.931-3.072-8.315-5.542-14.437-4.999c0.062-0.779,0.769-1.77,1.312-2.886c-3.652,0.714-7.443,1.674-11.864,3.75
	c-0.045-0.545-0.029-1.042,0-1.49c-6.456,1.548-14.824,6.729-22.792,18.896c0.14,1.039,0.901,4.134-2.272,7.597
	c-3.173,3.461-3.56,3.601-3.56,3.601c-1.11,1.269-1.327,2.642-1.049,4.519c1.261,7.362,6.221,9.853,13.178,9.713
	c-0.183-0.264-0.355-0.521-0.514-0.775c-2.261-3.616-2.387-5.15,1.694-6.48c11.875-1.878,13.277,6.33,12.982,13.222
	c0.658,0.048,0.866-1.009,1.25-1.394c0.741,3.911-0.115,8.98-2.164,12.26c1.192-0.286,1.423,1.414-0.056,2.075
	c-0.245,0.088-0.661,0.229-1.223,0.386c-0.006,0.001-0.012,0.004-0.019,0.005c-6.446,1.799-31.711,5.548-36.325-44.336
	c0,0,6.249-4.708-22.554-12.984c0.937,1.956,2.695,3.776,4.283,5.591c-13.504-1.771-27.798-6.253-42.718-12.599
	c2.26,3.104,5.857,5.894,9.596,8.268c-36.228-5.18-68.783-18.861-98.661-38.739c0.292,3.21,1.738,6.55,3.309,9.93
	c-13.218-8.02-18.967-7.487-32.668-18.618l2.209,5.373c-9.106-3.593-19.047-9.3-30.127-17.878L25.37,33.693l-10.594-4.635
	c9.689,11.917,20.635,23.488,35.093,34.1c-9.256-1.396-20.052-4.029-32.444-7.945l20.857,20.526
	c-1.195,0.578-3.13,0.768-5.628,0.662c2.907,2.467,6.653,4.511,10.926,6.291c-1.612,0.911-3.791,1.144-6.291,0.993
	c4.434,3.142,9.912,6.058,15.56,8.939l-25.161-6.29c12.12,16.416,27.184,26.599,45.191,36.583c-6.503,1.371-13.693,1.443-21.686,0
	c4.419,6.001,12.129,11.407,26.817,21.354c-8.132-0.367-18.249-2.997-28.803-6.125c8.44,8.364,18.269,14.561,29.464,18.623
	c-1.385,1.451-3.681,1.979-6.29,2.193c12.673,5.392,24.491,9.147,35.755,12.188c-5.029,4.42-12.031,7.249-19.699,9.538
	c14.083,7.84,31.095,10.651,50.157,9.948c-5.35,6.068-13.144,9.395-21.52,12.067c12.162,1.083,24.256,1.356,36.252,0.334
	c-0.411,1.366-1.42,2.599-3.311,3.639c7.314-0.892,14.722-1.564,22.182-2.151c-1.818,3.774-5.052,7.073-9.601,9.932
	c10.861-0.918,20.756-2.087,30.127-3.31c-2.224,3.19-5.059,6.077-8.607,8.606c10.179,0.404,18.349-1.52,25.658-4.303
	c-0.153,2.688-1.037,5.244-2.98,7.614c1.654-0.645,3.492-1.307,5.81-2.243c0.008-0.003,0.018-0.008,0.027-0.011
	c0.379-0.153,0.77-0.314,1.176-0.483c0.03-0.013,0.058-0.023,0.088-0.035c0.855-0.358,1.771-0.753,2.766-1.197
	c0.106-0.048,0.219-0.1,0.326-0.148c0.376-0.169,0.761-0.344,1.159-0.528c0.174-0.079,0.354-0.164,0.531-0.246
	c0.353-0.164,0.712-0.334,1.082-0.51c0.203-0.097,0.41-0.195,0.618-0.296c0.374-0.18,0.759-0.368,1.151-0.561
	c0.215-0.105,0.43-0.211,0.651-0.32c0.428-0.212,0.871-0.436,1.32-0.662c0.202-0.102,0.397-0.199,0.604-0.305
	c0.664-0.338,1.345-0.688,2.058-1.063c-1.402,4.521-3.3,8.665-5.793,12.415c4.538-1.915,8.797-4.429,12.776-7.688
	c1.114-0.911,2.211-1.871,3.281-2.906l1.655,6.291c0.345-0.349,0.667-0.707,0.97-1.076c2.122-2.585,3.319-5.647,4.989-8.524
	l3.387,3.641c0,0,2.214-4.814,5.472-8.553c0.001,0,0.002,0,0.002,0c0.585-0.672,1.203-1.306,1.848-1.872
	c0.005-0.005,0.011-0.01,0.016-0.015c0.16-0.14,0.322-0.275,0.485-0.406c0.002-0.003,0.003-0.004,0.005-0.005
	c1.821-1.459,3.833-2.323,5.898-1.88c0,0,0,0,0.001,0c0.85,0.184,1.708,0.575,2.566,1.255c8.086,6.398,6.889,23.755-28.735,44.721
	l0.008,0.001c-2.403,0.726-4.647,1.466-6.706,2.268c-0.38,8.843,1.548,16.828,5.688,23.309c-0.062-5.308,0.191-10.629,1.387-16.094
	c4.582-2.259,12.429-4.657,16.874-6.936l1.9,0.28c0,0,0.016-0.032,0.039-0.078c1.41,1.286,2.543,2.993,3.248,5.346
	c0.21,2.867,0.132,5.734-0.139,8.603c2.695-4.364,4.921-8.961,5.966-14.152c-0.245-2.937-1.871-5.363-3.702-7.713
	c4.375-5.338,11.55-12.162,22.072-16.561c0,0,3.833,3.338,5.05,10.319c-0.027,0.072-0.049,0.146-0.076,0.219
	c1.396,8.379-4.586,17.027-25.885,41.074c4.924,1.85,9.9,2.133,14.943,0.565v0.07c-0.579,2.059-0.335,4.125,0,6.16v0.053
	l0.007-0.001c0.003,0.021,0.006,0.039,0.01,0.06c4.296,1.091,7.978,0.813,11.09-0.732c0.827-0.4,1.622-0.871,2.368-1.45
	c1.936,4.339,5.697,7.059,10.844,8.547l0.035-0.029l0.036,0.029c5.146-1.488,8.907-4.208,10.843-8.547
	c0.75,0.584,1.552,1.056,2.385,1.459c3.107,1.537,6.784,1.813,11.074,0.724c0.002-0.021,0.007-0.039,0.009-0.06l0.008,0.001v-0.053
	c0.335-2.035,0.579-4.102,0-6.16v-0.07c5.042,1.567,10.02,1.284,14.942-0.565c-21.298-24.047-27.28-32.695-25.885-41.074
	c-0.025-0.073-0.049-0.146-0.075-0.219c1.217-6.981,5.05-10.319,5.05-10.319c10.813,4.521,18.093,11.601,22.43,17
	c-0.563,0.728-0.98,1.444-1.291,2.146c-2.84-0.541-5.65-1.214-8.398-2.037c-0.257-0.945-0.76-1.613-1.448-1.761
	c-0.605-0.13-1.241,0.179-1.809,0.768c-0.254-0.529-0.624-0.892-1.086-0.991c-0.556-0.119-1.142,0.172-1.659,0.723
	c-0.228-0.554-0.578-0.944-1.035-1.041c-0.524-0.111-1.083,0.174-1.565,0.72c-0.206-0.462-0.512-0.783-0.903-0.867
	c-0.524-0.113-1.081,0.221-1.544,0.823c-0.151-0.357-0.378-0.607-0.673-0.673c-0.702-0.149-1.492,0.773-1.768,2.062
	c-0.271,1.285,0.074,2.45,0.777,2.6c0.228,0.048,0.463-0.025,0.688-0.179c0.123,0.949,0.537,1.651,1.154,1.784
	c0.393,0.084,0.807-0.088,1.185-0.429c0.218,0.691,0.608,1.175,1.134,1.287c0.411,0.087,0.84-0.068,1.239-0.401
	c0.236,0.814,0.684,1.384,1.289,1.513c0.441,0.095,0.904-0.064,1.335-0.411c0.275,0.811,0.744,1.38,1.371,1.516
	c0.519,0.109,1.063-0.099,1.563-0.53c3.4,0.994,6.889,1.784,10.421,2.382c1.87,3.717,5.851,6.145,5.851,6.145
	c1.86-0.189,2.8-1.121,3.176-2.394c0.404,0.54,1.067,1.097,2.151,1.611c2.076,0.99,3.244,0.116,3.893-0.98
	c0.388,0.334,0.884,0.665,1.547,0.98c1.939,0.925,3.082,0.219,3.754-0.769c0.348,0.261,0.772,0.521,1.296,0.769
	c4.079,1.943,4.661-3.302,4.661-3.302c0.229-0.54,0.408-1.051,0.555-1.546c27.729-3.809,45.129-21.277,45.129-46.387
	C411.813,173.822,395.001,168.003,379.188,157.972z M352.489,71.807c0.277,0.085,0.55,0.192,0.812,0.318
	c0.587,0.283,1.129,0.652,1.635,1.065c0.68,0.554,1.19,1.437,1.664,2.156c0.582,0.889,1.064,1.735,1.741,2.552
	c0.658,0.792,1.738,1.897,1.683,3.016c-1.173,0.188-2.597,0.26-3.454-0.632c-0.454-0.474-1.222-1.288-1.54-1.864
	c-0.441-0.804-0.521-1.719-0.764-2.589c-0.461-1.654-1.131-3.117-2.501-4.204C351.905,71.737,352.31,71.75,352.489,71.807z
	 M244.471,187.544L244.471,187.544c-0.818,1.585-1.693,3.117-2.635,4.587c-0.073,0.115-0.149,0.228-0.224,0.342
	c-0.497,0.761-1.014,1.504-1.549,2.228c-0.167,0.227-0.333,0.451-0.502,0.672c-0.283,0.368-0.568,0.734-0.863,1.093
	c-0.398,0.484-0.808,0.96-1.229,1.425c-0.258,0.286-0.526,0.563-0.793,0.842c-0.335,0.346-0.677,0.688-1.026,1.023
	c-0.296,0.284-0.594,0.566-0.901,0.841c-0.461,0.415-0.934,0.818-1.42,1.209c-0.234,0.189-0.47,0.377-0.711,0.561
	c-0.605,0.463-1.224,0.911-1.868,1.338c-0.188,0.126-0.386,0.244-0.578,0.365c-0.587,0.374-1.19,0.732-1.811,1.075
	c-0.173,0.095-0.34,0.196-0.514,0.289c-0.748,0.397-1.524,0.767-2.32,1.119c-0.209,0.093-0.422,0.183-0.635,0.271
	c-0.857,0.36-1.732,0.704-2.647,1.011c2.893-3.613,4.463-8.059,4.856-13.242c-6.536,7.535-14.265,12.679-23.837,14.125
	c5.369-5.337,8.491-11.458,9.49-18.318c-7.855,5.144-16.491,9.249-26.706,11.258c4.578-4.459,8.129-9.358,9.933-15.01
	c-15.139,4.259-30.292,7.021-45.468,7.726c15.29-7.457,24.542-13.362,25.824-17.216c-21.024,2.686-41.217,3.145-60.474,1.104
	c15.001-2.455,28.454-7.338,40.831-13.906c-24.971,0.356-46.56-2.182-63.344-8.829c15.167-0.951,30.362-2.961,45.687-10.373
	c-25.25,1.761-47.678-0.057-60.807-12.802c12.592-0.039,27.312-0.915,44.474-5.959c-26.966,0.023-49.783-10.316-65.11-24.719
	c17.276,3.778,32.169,4.77,45.908,4.414C78.909,99.69,53.456,89.015,41.591,70.11c14.647,5.605,34.64,9.376,50.875,10.153
	c-29.468-12.35-49.128-28.429-58.71-48.335c0.633,1.313,5.803,2.957,7.17,3.638c2.479,1.234,4.971,2.446,7.473,3.634
	c4.843,2.299,9.732,4.5,14.659,6.614c9.554,4.1,19.276,7.84,29.131,11.15c20.559,6.905,41.656,12.262,62.922,16.488
	c2.784,0.554,34.986,7.242,32.176,11.701c-1.148,1.822-6.184,1.85-7.978,1.998c-5.486,0.456-11.04,0.251-16.531,0.097
	c-5.222-0.147-10.44-0.361-15.66-0.585c-3.134-0.134-6.27-0.276-9.403-0.419c-3.065-0.14-6.987,0.334-9.937-0.462
	c19.709,5.32,40.691,9.068,64.005,9.933c-10.915,4.631-24.489,7.651-39.286,9.932c46.421,0.199,59.502,4.344,20.305,14.678
	c0,0,58.709-9.16,20.526,10.042c0,0,43.481-12.138,9.492,14.126c0,0,37.961-16.333,11.035,12.581c0,0,33.549-18.54,10.815,8.387
	c0,0,16.996-11.918,6.18,3.31c0,0,15.891-12.14,10.594,3.091c0,0,7.505-6.618,9.271,0.001
	C248.952,177.379,246.97,182.699,244.471,187.544z M274.018,93.425c-0.266-1.05-0.7-2.053-1.34-2.998
	c-2.04,5-4.398,9.777-7.088,14.561c0.106-2.524-0.611-4.352-1.783-5.796c-1.822,4.175-3.764,8.331-6.044,12.439
	c-0.34-3.557-0.62-7.115-0.776-10.672c-0.714,0.862-1.182,1.782-1.414,2.756c-0.762-2.896-1.394-5.691-2.688-7.916
	c-0.164,0.746-0.366,1.451-0.776,1.908c-0.139-1.405-1.664-2.731-3.463-3.886c0.905-0.781,1.652-1.702,2.332-2.684
	c-2.401,0.797-6.854,1.899-11.521,2.783c-5.515,1.387-5.115,4.999-3.938,6.585c-0.605-0.146-1.221-0.349-1.789-0.605
	c-1.759-0.795-3.053-2.33-3.709-4.128c-0.606-1.657-1.135-3.124-0.61-4.897c0.122-0.411,0.281-0.81,0.479-1.189
	c0.153-0.292,1.333-1.55,1.333-1.55c1.524-1.933,2.633-2.277,4.408-3.698c0.842-0.355,2.215-0.526,3.737-0.441
	c-2.702-1.765-4.029-3.734-2.35-6.149c3.654-5.616,9.135-11.024,14.244-13.712c0.321,0.965,0.134,2.236,0,3.676
	c2.352-2.635,6.254-4.588,10.812-5.862c-0.66,1.033-0.924,1.875-0.987,2.62c3.412-1.423,7.165-1.604,11.307-0.346
	c-0.995,0.477-1.827,1.044-2.474,1.714c4.735,0.994,6.868,3.742,7.986,7.175c-1.049-0.303-2.037-0.381-2.898,0
	C279.009,78.671,279.204,85.295,274.018,93.425z M328.648,275.735c-4.27-1.312-9.625-4.52-15.363-8.4
	c2.055,2.689,4,5.391,8.153,7.925c-2.712,0.028-4.96-1.264-7.053-3.011c1.793,3.114,3.298,6.205,3.447,9.191
	c-4.087-1.01-6.835-3.885-9.092-7.448c0.078,6.565-5.5,12.679-8.465,12.52h-0.188c-2.966,0.159-8.544-5.954-8.465-12.52
	c-2.258,3.563-5.007,6.438-9.091,7.448c0.149-2.986,1.653-6.077,3.448-9.191c-2.093,1.747-4.346,3.039-7.052,3.011
	c4.15-2.534,6.093-5.235,8.15-7.925c-5.737,3.881-11.093,7.089-15.362,8.4c10.796-14.073,19.039-20.785,19.968-30l3.076,7.133v-6.56
	c1.538,2.351,3.313,4.125,5.387,5.183c1.984-1.011,3.693-2.683,5.185-4.881v5.694l3.213-7.3
	C309.289,254.398,317.569,261.288,328.648,275.735z M368.271,65.824c0,0-0.437-2.103-0.114-4.399
	c0.227,1.045,0.689,2.122,1.582,2.939c0,0-0.491-2.365,0.288-4.282c3.874,2.467,7.222,2.867,9.707,3.001
	c0.612,0.142,2.54-1.715,1.425,6.55c-0.652,7.947-4.871,5.379-5.759,9.78c-0.889,4.399,6.762,1.19,9.826-8.527
	c2.14-6.782,12.854-8.18,12.81-8.065c5.403-0.647,14.416-0.78,17.964,2.309c2.771,2.41,3.737,8.173,2.877,14.282
	c-0.296,2.103-0.982,3.524-2.098,4.347c-3.047,2.248-10.026,1.119-17.417-0.078c-8.173-1.322-18.346-2.955-27.44-0.228
	c0.479,0.567,0.985,1.139,1.54,1.727c1.174,1.243,2.041,2.584,2.604,3.971c6.803-1.384,14.572-0.135,22.232,1.105
	c9.194,1.487,17.132,2.771,22.433-1.137c2.595-1.913,4.188-4.865,4.74-8.778c1.197-8.495-0.525-16.266-5.118-20.25
	c-4.535-3.935-12.568-4.529-18.823-4.225c0,0-11.469,0.451-16.087-0.565c-6.817-1.502-8.166-3.276-8.34-2.98
	c-0.207,0-2.256,0.114-3.252,0.412c-5.138-1.396-7.651-0.478-7.651-0.478c-1.021,0.836-1.504,1.926-1.583,3.204
	c0.346,0.375,0.689,0.73,1.032,1.068C365.447,58.294,365.239,63.046,368.271,65.824z M377.883,54.595
	c-0.171,0.563-0.608,1.013-1.591,1.283c-1.491,0.075-2.916,0.005-4.053-0.714C372.239,55.165,371.899,54.452,377.883,54.595z"/>
</svg>